<svg width="576" height="576" viewBox="0 0 576 576" fill="none" xmlns="http://www.w3.org/2000/svg">
<path fill-rule="evenodd" clip-rule="evenodd" d="M288 568C444.849 568 572 440.849 572 284C572 127.151 444.849 0 288 0C131.151 0 4.00012 127.151 4.00012 284C4.00012 440.849 131.151 568 288 568ZM288 534C426.071 534 538 422.071 538 284C538 145.929 426.071 34 288 34C149.929 34 38.0001 145.929 38.0001 284C38.0001 422.071 149.929 534 288 534Z" fill="#2B2D42"/>
<g filter="url(#filter0_d_146_2)">
<path fill-rule="evenodd" clip-rule="evenodd" d="M288 568C444.849 568 572 440.849 572 284C572 127.151 444.849 0 288 0C131.151 0 4 127.151 4 284C4 440.849 131.151 568 288 568ZM288 534C426.071 534 538 422.071 538 284C538 145.929 426.071 34 288 34C149.929 34 38 145.929 38 284C38 422.071 149.929 534 288 534Z" fill="#B8B8FF"/>
</g>
<defs>
<filter id="filter0_d_146_2" x="0" y="0" width="576" height="576" filterUnits="userSpaceOnUse" color-interpolation-filters="sRGB">
<feFlood flood-opacity="0" result="BackgroundImageFix"/>
<feColorMatrix in="SourceAlpha" type="matrix" values="0 0 0 0 0 0 0 0 0 0 0 0 0 0 0 0 0 0 127 0" result="hardAlpha"/>
<feOffset dy="4"/>
<feGaussianBlur stdDeviation="2"/>
<feComposite in2="hardAlpha" operator="out"/>
<feColorMatrix type="matrix" values="0 0 0 0 0.79 0 0 0 0 0.79 0 0 0 0 0.79 0 0 0 0.25 0"/>
<feBlend mode="normal" in2="BackgroundImageFix" result="effect1_dropShadow_146_2"/>
<feBlend mode="normal" in="SourceGraphic" in2="effect1_dropShadow_146_2" result="shape"/>
</filter>
</defs>
</svg>
